<svg width="1632" height="348" viewBox="0 0 1632 348" fill="none" xmlns="http://www.w3.org/2000/svg">
<mask id="path-1-inside-1_5_40" fill="white">
<path d="M0.893066 0L1631.81 1.98965L1630.92 347.996L2.02683e-05 346.006L0.893066 0Z"/>
</mask>
<path d="M0.893066 0L1631.81 1.98965L1630.92 347.996L2.02683e-05 346.006L0.893066 0Z" fill="url(#paint0_linear_5_40)"/>
<path d="M0.894357 -0.499998C0.893497 -0.166666 0.892636 0.166666 0.891776 0.499998C66.7894 0.553997 132.687 0.60904 198.585 0.665128C676.328 1.07176 1154.07 1.5333 1631.81 2.04977L1631.75 1.98957C1631.47 117.325 1631.19 232.66 1630.9 347.996L1630.92 347.974C1457.66 347.777 1284.4 347.573 1111.13 347.362C740.755 346.91 370.378 346.361 0.000770671 345.716L0.290756 346.007C0.444228 296.569 0.599427 247.131 0.756352 197.693C0.965522 131.795 1.17776 65.898 1.39307 0.000609976C1.05973 0.000203325 0.7264 -0.000203325 0.393067 -0.000609976C0.268209 65.8969 0.140283 131.794 0.00928912 197.692C-0.0889859 247.13 -0.188988 296.568 -0.290716 346.006L-0.291314 346.297L-0.000730135 346.297C370.377 346.555 740.755 346.91 1111.13 347.362C1284.4 347.573 1457.66 347.792 1630.92 348.018L1630.94 348.018L1630.94 347.996C1631.25 232.661 1631.56 117.325 1631.87 1.98972L1631.87 1.92959L1631.81 1.92952C1154.07 1.28034 676.329 0.576244 198.587 -0.182776C132.689 -0.287472 66.7919 -0.393213 0.894357 -0.499998ZM0.891776 0.499998L0.894357 -0.499998L0.394014 -0.500408L0.393067 -0.000609976L1.39307 0.000609976L0.891776 0.499998Z" fill="black" mask="url(#path-1-inside-1_5_40)"/>
<defs>
<linearGradient id="paint0_linear_5_40" x1="0.446543" y1="173.003" x2="1631.36" y2="177.213" gradientUnits="userSpaceOnUse">
<stop stop-color="#002223"/>
<stop offset="0.365385" stop-color="#003335"/>
<stop offset="0.817308" stop-color="#008689"/>
<stop offset="1" stop-color="#008689"/>
</linearGradient>
</defs>
</svg>
